<svg width="724" height="757" viewBox="0 0 724 757" fill="none" xmlns="http://www.w3.org/2000/svg">
<g opacity="0.36" clip-path="url(#clip0_158_1995)">
<path d="M383.42 683.876C381.324 689.365 378.379 694.413 375.686 699.807C375.322 704.039 374.911 708.569 374.548 712.8C341.799 712.515 309.477 709.541 277.708 701.139C245.089 692.296 209.948 691.632 178.874 676.907C175.727 675.49 172.628 673.773 169.528 672.057C163.83 675.137 154.485 670.287 156.014 662.564C157.591 654.542 161.545 645.058 163.389 639.223C166.446 629.598 169.802 620.019 172.906 610.095C177.46 594.886 186.405 580.984 195.003 567.335C182.049 571.717 169.253 577.042 156.865 583.658C145.517 589.52 134.198 599.062 119.074 599.731C117.689 600.737 116.65 601.491 115.265 602.497C100.221 563.964 93.4406 519.694 76.1765 483.567C72.0729 474.645 71.0214 467.739 69.7506 458.347C68.2755 448.31 65.1635 438.932 64.2863 428.99C62.6267 408.508 56.8437 388.904 56.4747 368.013C56.1481 358.464 53.2878 349.433 53.2602 339.932C53.1854 330.729 56.1477 321.701 57.5677 312.735C58.7834 303.125 57.9536 292.883 59.5157 283.021C60.8884 274.354 64.9046 266.412 67.7249 258.281C68.8436 255.088 72.668 254.162 75.8621 255.281C76.0515 254.085 76.1935 253.188 76.3828 251.993C78.042 235.712 80.912 221.462 86.1116 206.048C96.7001 174.026 112.419 142.51 134.603 116.613C144.364 105.292 155.117 93.5158 167.742 85.4056C181.059 76.7922 201.155 75.6862 216.61 72.9259C235.889 69.2396 254.065 70.5865 273.295 73.0195C282.012 74.0939 290.887 76.1122 299.794 75.9912C309.347 75.666 318.837 73.7992 328.138 73.1278C346.094 71.9891 362.149 63.5031 379.288 59.7842C398.064 55.4054 417.974 49.6744 437.109 52.7051C470.248 58.2602 503.538 82.2206 530.566 101.207C542.428 109.519 554.43 122.755 563.379 133.976C574.845 148.659 587.839 161.439 601.084 174.566C607.706 181.129 613.935 188.243 619.818 195.608C618.433 196.614 617 197.919 615.615 198.925C613.238 200.387 610.861 201.849 608.484 203.31C601.54 212.32 591.482 217.774 582.431 224.612C580.951 226.215 579.77 227.866 578.589 229.518C576.81 231.074 575.078 232.331 573.299 233.888C573.048 233.542 572.45 233.447 572.198 233.101C566.956 237.172 561.667 241.543 556.723 245.661C556.975 246.008 557.227 246.354 557.777 246.747C554.267 249.561 550.756 252.375 546.947 255.142C546.648 255.094 546.695 254.796 546.396 254.748C543.877 257.106 541.657 259.512 539.438 261.918C533.03 269.481 525.112 274.967 517.351 281.396C510.676 286.773 505.055 293.235 498.333 298.91C495.515 301.221 469.604 321.626 466.504 319.909C469.305 321.578 479.866 316.818 483.392 315.844C491.686 313.788 498.438 311.794 506.324 308.447C521.748 302.006 540.004 300.915 556.246 297.054C564.54 294.997 572.66 295.977 580.859 294.519C589.059 293.06 597.196 290.06 605.695 288.649C616.082 286.924 628.2 283.942 639.641 283.303C641.577 282.69 643.859 281.826 645.795 281.214C649.62 280.288 653.444 279.362 657.269 278.436C657.787 280.969 658.305 283.502 658.824 286.035C662.379 288.742 663.415 293.808 661.557 297.803C662.17 299.738 662.436 301.925 663.049 303.86C667.968 321.182 671.69 338.315 671.887 356.422C671.928 373.584 666.618 387.755 663.071 404.349C658.561 425.079 660.709 444.414 662.668 464.944C663.998 481.698 663.079 497.176 656.636 512.699C653.517 520.783 648.998 528.033 645.627 535.77C641.279 545.804 639.575 556.563 636.675 567.133C632.373 582.688 623.712 594.796 617.16 609.076C609.332 625.605 597.178 636.548 583.34 648.448C558.53 669.64 533.137 692.578 501.517 702.581C484.094 708.093 465.602 710.679 446.702 711.974C444.607 717.463 437.917 720.999 432.6 715.868C428.085 711.477 423.349 710.42 420.959 704.221C417.957 696.086 419.424 686.822 416.768 678.436C412.996 667.422 409.02 655.763 403.957 645.158C403.249 643.82 402.589 642.184 401.881 640.847C399.44 646.587 396.101 652.185 395.266 653.585C389.172 663.036 387.311 672.851 383.42 683.876ZM165.841 114.821C138.104 137.081 119.961 170.358 107.137 202.945C100.899 219.113 95.5573 235.423 92.5602 252.411C91.4715 259.285 88.9826 265.324 86.6979 272.008C83.1526 282.782 81.7002 293.887 79.6499 304.898C79.5552 305.495 79.4132 306.392 79.0195 306.942C78.8751 313.659 78.1327 320.282 77.3904 326.904C76.08 337.112 77.4304 344.066 79.8498 353.947C82.6455 367.256 81.6167 381.492 84.066 395.054C87.3949 412.737 88.5835 430.387 92.6051 447.568C94.0976 453.625 93.7015 459.996 95.194 466.053C97.0951 473.4 102.474 480.073 105.367 486.965C110.901 500.402 115.002 515.144 118.254 529.445C121.301 543.101 127.181 556.286 130.48 570.289C131.454 573.813 132.429 577.337 133.702 580.909C134.788 579.855 136.173 578.849 137.26 577.796C143.588 572.671 150.215 567.594 157.598 563.555C159.628 562.345 161.958 561.182 163.988 559.972C163.532 558.98 163.029 558.288 162.573 557.297C176.989 555.291 191.958 547.858 204.801 542.234C204.958 543.178 205.115 544.121 205.571 545.113C206.468 545.255 207.413 545.098 208.609 545.287C214.212 542.805 219.516 540.275 225.072 538.092C224.616 537.1 224.208 535.81 223.799 534.52C225.735 533.908 227.671 533.295 229.308 532.635C230.945 531.975 232.534 531.615 234.171 530.955C234.627 531.946 235.382 532.985 235.838 533.976C246.258 530.112 256.425 525.901 266.593 521.691C266.342 521.345 265.791 520.951 265.539 520.605C267.821 519.741 270.056 519.176 272.339 518.312C272.936 518.407 273.188 518.753 273.786 518.848C278.351 517.12 282.915 515.392 287.731 514.01C291.555 513.084 296.481 512.945 299.645 510.383C301.424 508.826 304.272 510.196 304.539 512.383C305.149 520.139 299.892 522.37 293.392 524.71C292.101 525.118 290.811 525.527 289.473 526.234C290.322 526.675 291.471 527.163 292.368 527.305C304.798 532.031 318.803 534.556 332.005 536.34C355.373 539.735 381.998 545.79 405.228 538.441C416.844 534.766 434.314 528.955 442.155 520.087C451.129 509.867 458.656 499.111 468.432 489.63C478.902 479.647 490.754 474.478 494.269 460.023C494.899 457.979 494.979 455.54 495.358 453.149C496.666 448.761 499.768 444.657 500.179 440.127C500.699 436.839 499.663 431.774 500.231 428.187C500.325 427.59 500.467 426.693 500.562 426.095C499.713 425.654 498.564 425.166 497.714 424.725C496.566 424.237 497.495 422.24 498.644 422.728C499.493 423.169 500.343 423.61 501.24 423.752C503.888 412.836 508.046 403.997 505.109 391.584C502.627 380.162 505.652 372.676 506.852 361.225C507.769 351.566 507.002 342.867 509.76 333.194C509.996 331.7 511.666 328.9 511.13 330.347C511.225 329.75 511.319 329.152 511.367 328.853C504.961 330.596 498.209 332.59 491.253 333.939C491.205 334.238 491.205 334.238 491.158 334.537C488.714 346.097 489.985 355.489 490.578 367.225C491.547 382.39 487.544 397.993 485.177 412.936C482.81 427.879 479.058 443.828 472.349 457.164C469.75 461.961 466.601 466.364 462.398 469.681C454.637 476.11 450.7 481.614 445.047 490.216C441.016 496.317 434.137 501.048 429.555 506.756C425.068 511.866 422.469 516.663 415.67 518.956C404.653 522.725 390.491 519.257 379.538 518.747C365.249 518.016 351.873 519.267 338.152 514.95C323.282 510.144 308.665 505.684 294.568 497.937C283.57 491.906 280.254 481.884 277.174 470.367C272.806 453.438 267.494 436.666 265.015 419.424C264.967 419.723 264.621 419.974 264.574 420.273C263.739 421.673 261.143 420.649 261.978 419.249C262.812 417.85 263.599 416.749 264.434 415.349C262.817 406.209 260.46 397.87 257.899 388.887C257.851 389.185 257.505 389.437 257.458 389.736C253.882 396.828 250.653 403.67 247.078 410.762C244.385 416.156 241.251 422.4 235.553 425.48L235.254 425.433C235.568 427.321 236.181 429.256 237.093 431.238C239.734 437.784 244.059 443.371 246.055 450.12C249.324 460.442 246.88 472.002 248.26 482.637C244.939 484.256 241.618 485.874 238.297 487.493C233.408 473.851 235.822 458.609 230.037 444.826C226.892 437.588 225.29 430.288 223.735 422.689C221.279 426.589 218.822 430.489 216.413 434.09C215.578 435.49 213.675 433.963 214.509 432.563C217.36 428.113 220.21 423.663 223.06 419.212C221.819 413.502 220.578 407.791 218.74 401.985C218.127 400.05 217.215 398.067 216.303 396.085C211.215 406.92 205.53 417.661 198.193 427.222C199.167 430.746 200.094 434.569 201.021 438.392C203.188 447.926 203.168 457.727 206.28 467.104C208.732 474.845 214.159 481.219 217.602 488.504C218.766 490.833 219.929 493.162 221.093 495.49C218.118 496.857 214.844 498.177 211.869 499.544C208.473 491.96 206.022 484.219 201.933 477.138C198.096 470.403 195.236 461.372 193.382 453.726C190.758 443.2 188.433 432.722 185.511 422.15C182.745 412.521 180.435 403.883 179.857 393.988C179.528 390.26 178.853 386.783 177.926 382.96C177.532 383.51 177.438 384.108 177.091 384.36C171.705 395.148 166.019 405.889 159.783 416.237C160.035 416.583 159.94 417.181 160.192 417.527C163.76 427.895 166.934 438.814 169.212 449.591C171.992 461.06 171.688 472.654 175.413 483.966C178.321 492.699 184.204 500.064 188.449 508.089C187.159 508.497 186.214 508.654 184.924 509.062C182.988 509.675 183.805 512.255 185.646 512.24C187.189 512.178 188.479 511.77 190.021 511.708C190.933 513.69 192.144 515.72 193.056 517.703C199.888 513.27 207.427 510.176 215.014 506.782C214.762 506.436 214.558 505.791 214.306 505.444C217.58 504.125 220.854 502.805 224.128 501.485C224.379 501.832 224.631 502.178 224.584 502.477C230.486 500.042 236.593 498.252 242.243 495.47C241.74 494.778 241.488 494.432 241.284 493.787C244.259 492.42 246.887 491.304 249.862 489.937C249.862 489.937 249.815 490.236 250.114 490.283C250.114 490.283 250.114 490.283 250.067 490.582C250.067 490.582 250.067 490.582 250.413 490.331C252.884 488.271 255.904 492.426 253.433 494.485C253.086 494.737 252.74 494.988 252.74 494.988C256.216 500.134 262.021 504.117 266.536 508.509C263.954 509.325 261.326 510.441 258.745 511.257C255.992 509.289 253.286 507.023 250.879 504.803C249.322 503.025 247.466 501.199 245.609 499.373C239.911 502.454 234.104 504.291 227.745 505.735C227.446 505.687 227.1 505.939 226.801 505.892C227.053 506.238 227.304 506.584 227.509 507.229C230.685 512.328 231.423 517.346 232.412 522.711C229.091 524.329 226.116 525.696 222.795 527.315C222.842 527.016 222.638 526.371 222.685 526.072C221.885 519.512 219.606 514.555 216.728 509.504C209.189 512.599 202.105 516.685 195.022 520.771C197.192 524.485 199.315 528.498 201.784 532.259C202.287 532.951 202.743 533.942 202.948 534.587C198.73 536.064 194.81 537.588 190.545 539.363C188.47 535.052 186.347 531.039 183.972 526.68C178.815 516.673 175.892 506.1 170.435 496.045C165.639 487.626 162.418 477.006 160.202 467.771C157.312 455.059 154.422 442.347 150.934 429.54C148.011 418.967 145.497 409.685 144.415 399.097C139.345 405.953 134.527 413.156 131.156 420.893C131.407 421.239 131.36 421.538 131.612 421.885C135.84 433.889 139.376 446.397 142.062 458.464C145.156 471.822 144.915 484.957 149.253 498.204C152.773 508.872 160.26 517.717 165.072 527.976C168.059 534.27 171.141 539.966 174.271 545.363C171.642 546.479 169.36 547.343 166.731 548.458C165.74 548.914 165.299 549.763 165.802 550.455C164.212 550.816 162.922 551.225 161.285 551.885C160.625 550.248 159.618 548.863 158.958 547.227C153.14 535.583 149.809 523.72 143.393 511.981C137.842 502.524 134.007 489.969 131.682 479.491C128.179 464.844 124.975 450.244 120.874 435.502C117.181 422.05 114.101 410.533 112.99 396.265C111.831 382.295 106.046 368.512 106.083 354.731C105.836 342.744 107.966 329.296 110.111 317.688C111.389 309.618 112.478 302.745 111.018 294.548C109.857 286.399 106.854 278.264 106.338 269.911C105.431 256.288 110.332 240.827 113.06 227.473C114.921 217.658 118.97 207.576 124.827 199.62C131.818 190.311 136.213 179.978 142.055 170.181C144.559 165.982 147.741 159.44 152.086 155.226C159.488 141.387 169.063 125.441 184.944 119.991C189.807 118.311 195.236 118.864 200.618 119.717C209.968 112.926 219.618 106.183 229.519 99.7855C205.473 98.7342 183.095 100.704 165.841 114.821ZM467.544 545.553C479.722 549.933 492.783 552.614 505.45 555.846C507.874 554.085 510.251 552.624 512.675 550.863C518.956 546.037 523.884 540.078 528.262 533.725C525.87 533.346 523.179 532.92 520.834 532.242C519.34 532.005 519.718 529.615 521.213 529.851C524.203 530.325 526.894 530.751 529.836 531.523C533.474 525.972 536.907 519.776 540.592 513.926C531.166 511.515 522.087 508.851 513.843 504.788C507.953 514.884 502.457 524.43 492.115 531.676C484.197 537.162 475.918 541.059 467.544 545.553ZM529.92 633.554C529.825 634.151 529.683 635.048 529.289 635.598C535.917 630.521 542.245 625.396 548.574 620.271C542.405 620.52 536.487 621.114 530.366 621.064C518.469 620.711 506.572 620.359 494.675 620.006C493.73 620.163 493.322 618.873 493.416 618.275C490.992 620.036 488.568 621.796 486.097 623.856C481.846 627.471 478.445 631.528 474.793 635.239C481.166 635.635 487.838 636.079 494.259 636.177C499.783 636.133 505.306 636.089 510.877 635.746C514.261 635.669 526.362 636.667 528.425 633.317C529.118 632.814 530.014 632.956 529.92 633.554ZM567.81 605.243C562.115 602.503 556.514 599.165 550.472 596.676C546.428 595.116 542.683 593.604 538.64 592.045C530.47 597.184 521.797 601.632 513.077 606.378C520.158 608.112 527.239 609.846 534.319 611.58C539.009 612.936 543.745 613.992 548.04 615.898C549.189 616.386 550.636 616.922 552.084 617.457C557.971 613.182 563.166 609.409 567.81 605.243ZM550.006 618.966C547.709 617.99 546.01 617.108 544.562 616.572C533.831 612.728 522.266 610.284 511.046 607.588C505.348 610.668 499.902 614.094 494.408 617.819C505.408 618.03 516.707 618.288 527.66 618.797C534.379 618.942 541.052 619.386 547.819 619.233C548.81 618.777 549.408 618.872 550.006 618.966ZM466.267 627.148C472.737 621.127 478.31 614.963 485.331 609.336C488.149 607.025 491.219 605.06 493.989 603.048C491.047 602.276 488.152 601.204 484.958 600.086C483.809 599.597 484.691 597.899 485.84 598.387C489.333 599.553 492.527 600.672 496.02 601.838C503.938 596.352 512.359 591.559 520.529 586.419C510.852 583.661 500.828 581.154 490.805 578.648C483.076 582.938 475.647 587.276 468.877 593.25C462.848 598.422 458.722 605.121 451.34 609.16C443.957 613.199 435.868 615.9 427.369 617.311C422.002 618.299 417.029 618.737 412.056 619.175C417.231 625.203 421.13 633.479 423.834 641.566C425.722 641.253 427.611 640.939 429.201 640.578C442.72 638.43 456.585 636.031 466.267 627.148ZM523.252 584.706C527.707 581.735 532.161 578.764 536.317 575.746C538.741 573.986 540.914 571.879 543.087 569.772C534.81 567.849 526.974 565.076 519.091 562.602C511.173 568.088 502.5 572.535 494.126 577.029C503.898 579.19 513.575 581.948 523.252 584.706ZM545.008 567.319C552.407 559.301 558.202 549.802 563.997 540.304C556.822 539.168 549.395 537.685 541.967 536.202C536.566 545.15 530.315 553.657 521.263 560.495C529.445 563.016 537.077 565.144 545.008 567.319ZM574.942 521.512C572.598 520.834 569.954 520.109 567.563 519.73C563.125 518.721 558.341 517.963 553.605 516.907C552.377 518.857 551.495 520.555 550.267 522.505C547.81 526.405 545.652 530.352 543.196 534.252C550.324 535.687 557.751 537.17 564.927 538.307C567.037 534.658 569.195 530.711 571.604 527.11C572.785 525.459 574.013 523.509 574.942 521.512ZM591.296 476.31C591.58 474.517 591.612 472.377 591.598 470.537C586.169 469.983 580.393 469.681 574.964 469.128C574.067 468.986 573.17 468.844 572.273 468.702C571.753 471.989 570.933 475.229 570.066 478.768C568.805 482.858 567.545 486.947 565.985 490.989C573.161 492.125 580.037 493.215 587.26 494.052C589.104 488.217 590.696 482.036 591.296 476.31ZM592.315 448.593C592.788 445.604 593.56 442.663 594.333 439.722C588.353 438.775 582.326 438.126 576.299 437.478C574.707 443.659 572.864 449.495 572.923 456.857C573.001 460.239 572.826 463.275 572.353 466.263C574.446 466.595 576.885 466.675 579.025 466.707C582.959 467.024 587.192 467.388 591.127 467.705C591.774 461.681 591.273 455.168 592.315 448.593ZM598.952 420.234C599.505 414.807 600.656 409.475 602.106 404.19C595.229 403.101 588.557 402.657 581.633 401.866C580.056 409.888 580.918 417.99 579.64 426.059C579.12 429.347 578.3 432.587 577.229 435.481C583.256 436.129 589.282 436.777 595.262 437.724C596.759 432.141 598.257 426.557 598.952 420.234ZM611.8 366.205C612.732 358.387 612.216 350.034 610.708 342.136C609.166 342.198 607.325 342.213 605.735 342.574C598.874 343.325 591.965 344.376 585.056 345.426C585.92 347.707 586.832 349.69 587.35 352.223C588.796 358.579 589.894 365.187 589.451 371.856C590.694 371.747 592.189 371.983 593.433 371.874C599.255 371.877 604.779 371.833 610.696 371.238C611.578 369.54 611.862 367.747 611.8 366.205ZM642.111 323.827C633.645 323.099 622.204 323.737 615.736 323.938C616.112 327.368 616.882 330.247 618.895 333.017C619.65 334.055 619.413 335.55 618.673 336.352C619.381 337.689 619.79 338.979 620.545 340.018C626.068 339.974 631.891 339.977 637.509 339.335C639.697 339.069 641.932 338.504 644.167 337.939C643.681 333.266 642.896 328.547 642.111 323.827ZM609.515 336.126C608.54 332.602 608.022 330.069 607.803 327.584C607.347 326.592 607.19 325.648 607.08 324.406C598.724 324.92 590.116 325.089 581.759 325.603C581.206 331.03 581.346 335.954 584.066 340.061C584.821 341.1 584.632 342.295 583.892 343.097C583.845 343.396 584.144 343.443 584.096 343.742C587.874 343.115 591.651 342.488 595.428 341.861C600.448 341.124 605.122 340.639 610.001 340.799C610.285 339.006 609.923 337.417 609.515 336.126ZM520.875 359.769C520.558 363.702 519.44 366.895 518.274 370.386C518.274 370.386 518.573 370.433 518.872 370.481C525.843 370.972 533.113 371.511 540.179 371.405C540.827 365.38 540.326 358.867 539.085 353.156C533.12 354.05 527.108 355.242 521.144 356.136C520.954 357.331 521.064 358.574 520.875 359.769ZM566.866 415.764C567.372 410.636 568.476 405.603 569.831 400.916C560.767 400.093 551.75 398.971 543.079 397.598C542.985 398.196 542.89 398.794 542.795 399.391C541.455 405.919 542.208 412.778 541.119 419.652C540.409 424.135 539.196 427.925 537.982 431.716C546.401 432.743 554.568 433.424 562.987 434.451C564.579 428.269 566.423 422.434 566.866 415.764ZM570.508 398.573C573.03 390.394 575.85 382.263 577.474 373.942C568.268 374.016 558.763 374.042 549.604 373.817C549.368 375.311 549.43 376.853 548.894 378.3C547.649 384.229 545.254 389.671 543.411 395.506C552.727 396.675 561.444 397.75 570.508 398.573ZM539.8 373.796C532.782 373.603 525.464 373.363 518.493 372.872C518.194 372.824 517.895 372.777 517.643 372.431C517.06 374.177 516.477 375.922 516.193 377.716C515.436 382.497 516.221 387.217 516.754 391.591C522.734 392.538 528.414 393.437 534.394 394.384C536.427 387.354 538.712 380.669 539.8 373.796ZM547.833 357.912C548.964 362.38 549.749 367.1 549.637 371.677C559.142 371.651 568.348 371.577 577.853 371.551C577.995 370.654 578.137 369.758 578.279 368.861C579.069 361.94 578.458 354.184 577.155 346.932C570.844 348.077 564.533 349.222 558.27 350.068C553.894 350.6 549.818 351.18 545.443 351.713C546.654 353.743 547.267 355.678 547.833 357.912ZM552.636 348.869C560.788 347.709 568.689 346.204 576.889 344.745C576.684 344.1 576.527 343.156 576.323 342.511C575.553 339.632 574.987 337.398 575.02 335.258C573.951 332.332 573.527 329.201 573.403 326.118C563.85 326.443 553.951 327.02 544.399 327.345C543.263 334.518 541.387 342.492 545.114 347.984C545.618 348.677 545.476 349.573 545.082 350.124C547.616 349.606 550.102 349.387 552.636 348.869ZM592.157 374.123C591.26 373.981 590.316 374.138 589.419 373.995C589.277 374.892 589.135 375.789 588.993 376.685C587.164 384.361 583.84 391.8 581.964 399.774C588.936 400.266 595.561 401.009 602.437 402.098C605.148 392.724 608.409 383.743 610.522 374.274C604.4 374.224 598.278 374.173 592.157 374.123ZM565.008 493.285C561.984 500.771 558.708 507.911 554.833 514.957C559.271 515.966 563.755 516.676 568.193 517.685C570.884 518.111 573.527 518.837 576.171 519.562C580.045 512.516 583.762 504.527 586.582 496.396C579.36 495.558 572.184 494.422 565.008 493.285ZM514.725 503.09C522.969 507.153 532.347 509.863 541.474 512.228C542.261 511.127 542.749 509.979 543.537 508.878C546.828 503.579 549.915 497.634 552.404 491.595C542.789 490.379 532.828 489.414 523.702 487.049C521.497 491.295 519.339 495.242 516.835 499.441C516.048 500.542 515.213 501.942 514.725 503.09ZM535.442 486.458C541.421 487.405 547.401 488.352 553.38 489.299C556.358 482.111 558.784 474.53 559.92 467.358C550.951 465.937 542.422 463.667 533.642 461.051C533.548 461.649 533.406 462.546 533.012 463.096C530.633 470.378 527.954 477.613 524.678 484.753C528.266 485.321 531.854 485.889 535.442 486.458ZM560.299 464.967L560.346 464.668C561.325 456.552 559.771 448.953 561.395 440.632C561.632 439.138 561.821 437.942 562.357 436.495C553.891 435.767 545.771 434.787 537.352 433.76C536.485 437.299 535.917 440.886 535.852 445.164C536.039 449.789 535.329 454.272 534.32 458.708C542.801 461.277 551.676 463.295 560.299 464.967ZM526.275 430.168C527.662 423.341 530.104 417.601 530.595 410.632C531.053 405.803 532.109 401.069 533.764 396.429C528.382 395.577 522.701 394.677 517.021 393.777C517.083 395.319 517.145 396.861 517.16 398.701C516.717 405.371 515.187 413.094 513.894 419.322C513.122 422.264 512.444 424.607 511.719 427.25C516.408 428.605 521.192 429.363 526.275 430.168ZM303.296 359.62C300.809 359.839 298.131 367.074 296.178 371.666C296.43 372.012 296.382 372.311 296.587 372.956C298.079 379.014 300.217 384.867 302.103 390.373C306.732 384.367 311.865 379.052 316.494 373.046C316.84 372.794 316.887 372.495 317.281 371.945C315.3 367.036 312.769 361.733 312.629 356.809C312.285 351.241 314.789 347.042 318.599 344.275C318.646 343.976 318.646 343.976 318.693 343.677C323.512 336.475 333.316 336.496 341.074 335.887C353.46 335.091 363.483 337.598 375.681 332.178C382.922 329.035 390.573 321.363 399.039 322.091C410.794 323.34 421.488 340.964 424.757 351.286C428.938 363.589 425.831 379.334 419.5 390.28C414.493 398.677 412.838 403.317 411.324 412.88C410.33 419.156 409.336 425.432 408.042 431.661C405.945 442.971 393.555 455.407 383.497 460.86C371.801 466.973 357.592 463.804 348.406 454.077C337.914 442.918 335.168 423.489 329.335 410.004C324.619 399.148 322.75 389.661 319.922 378.491C319.513 377.2 319.152 375.611 318.492 373.975C313.516 380.233 307.99 386.098 303.314 392.403C308.045 405.101 313.123 417.546 316.123 431.501C319.689 447.69 326.812 460.767 341.365 469.505C353.417 476.622 363.973 483.502 378.422 479.357C392.177 475.715 403.982 470.845 414.954 461.554C426.273 452.011 429.347 438.405 431.919 424.108C433.732 414.591 433.705 405.09 437.611 395.905C442.888 383.874 448.133 373.982 449.665 360.439C450.454 353.518 450.584 344.96 446.652 338.823C443.428 334.023 435.687 330.653 431.03 327.158C423.117 321.003 416.684 313.244 408.425 307.34C403.768 303.846 399.268 301.295 393.209 302.786C389.683 303.759 384.945 308.523 381.073 309.748C371 313.361 360.74 312.349 350.196 313.129C340.297 313.706 331.091 313.78 321.556 310.125C312.571 306.864 287.551 302.289 278.734 313.453C274.514 320.75 279.751 328.319 283.304 336.847C283.555 337.193 283.508 337.492 283.76 337.838C284.106 337.587 284.405 337.634 284.452 337.335L284.751 337.383C284.751 337.383 284.751 337.383 284.799 337.084C286.137 336.376 287.049 338.359 285.711 339.066C285.364 339.318 285.018 339.569 284.672 339.821C288.728 349.041 292.186 358.167 294.952 367.796C296.716 364.399 298.134 361.253 299.3 357.762C299.394 357.164 300.04 356.96 300.638 357.055C301.534 357.197 302.18 356.993 303.077 357.135C304.178 357.922 304.24 359.463 303.296 359.62ZM338.897 349.635C332.82 355.106 328.097 361.71 323.121 367.968C323.986 370.25 325.197 372.28 325.809 374.215C330.367 389.948 334.719 405.036 340.866 420.409C343.256 426.608 346.495 433.248 349.876 438.992C357.094 451.47 371.413 455.883 382.826 445.742C386.73 442.378 391.673 438.259 395.279 434.848C400.017 430.084 401.893 422.109 403.281 415.283C405.252 406.711 405.396 399.994 410.058 391.847C419.774 375.005 425.402 351.081 405.737 337.857C394.928 330.631 378.146 347.579 364.896 346.094C355.533 345.223 338.209 338.497 326.736 341.275C328.624 340.961 330.167 340.899 331.961 341.183C333.455 341.42 334.32 343.702 332.683 344.361C326.639 347.693 320.437 350.081 320.056 358.292C320.024 360.432 320.841 363.012 321.957 365.64C326.634 359.334 331.358 352.73 337.938 347.951C338.882 347.794 339.59 349.132 338.897 349.635ZM280.449 352.938C279.788 351.302 279.128 349.665 278.468 348.029C277.98 349.177 277.539 350.026 276.751 351.127C276.704 351.426 276.405 351.378 276.106 351.331C274.342 354.728 273.129 358.519 271.412 361.617C269.601 365.312 267.443 369.26 265.632 372.955C268.697 382.632 271.163 392.213 272.985 401.998C278.102 394.844 283.566 387.437 288.432 379.936C286.169 371 283.954 361.765 280.449 352.938ZM232.097 410.534C232.976 414.656 233.51 419.029 234.389 423.151C241.173 419.018 244.482 409.738 247.664 403.196C250.452 397.204 253.538 391.26 256.326 385.268C254.739 379.808 254.049 374.491 253.012 369.425C249.452 378.358 245.341 386.898 239.987 395.547C237.137 399.997 234.586 404.495 231.688 409.244C231.688 409.244 231.892 409.889 232.097 410.534ZM223.184 348.77C224.507 346.222 225.877 343.376 225.516 341.787C224.163 340.653 222.81 339.52 221.504 338.088C220.812 338.591 220.418 339.141 219.678 339.943C220.999 343.216 222.414 345.891 223.184 348.77ZM196.73 424.846C204.067 415.285 209.155 404.449 214.541 393.661C212.922 390.341 211.35 386.722 210.375 383.198C204.942 394.285 199.555 405.074 194.121 416.161C194.891 419.04 195.661 421.919 196.73 424.846ZM205.686 155.444C209.211 154.471 212.894 154.441 216.529 154.711C221.016 149.6 225.551 144.191 230.038 139.081C224.357 138.182 218.472 136.637 212.493 135.69C207.769 142.294 202.746 148.851 197.172 155.015C190.906 161.681 183.539 167.561 177.021 173.881C175.935 174.934 174.331 173.455 175.417 172.401C181.588 166.333 188.609 160.705 194.781 154.636C200.606 148.819 205.628 142.262 210.4 135.358C195.702 133.337 181.271 133.502 171.368 145.72C172.108 144.918 170.486 147.418 168.959 149.321C165.022 154.824 159.78 158.896 156.095 164.746C154.473 167.246 151.371 171.35 147.876 176.004C147.482 176.555 147.34 177.451 147.293 177.75C143.78 186.385 142.297 193.809 137.384 201.609C136.203 203.26 135.369 204.659 134.534 206.059C134.487 206.358 134.093 206.908 134.046 207.207C131.054 212.554 128.707 217.697 126.721 224.428C122.986 236.397 119.533 252.394 118.741 265.135C118.201 278.223 123.876 290.764 123.682 303.6C123.583 315.839 120.351 328.5 119.355 340.597C118.122 354.187 119.393 363.579 122.487 376.937C125.487 390.891 125.702 405.018 129.945 418.863C133.615 411.173 138.433 403.971 143.85 396.863C143.944 396.266 143.693 395.919 143.787 395.322C142.943 383.24 137.77 371.392 137.571 359.106C137.386 348.661 139.232 337.005 140.842 326.844C141.93 319.97 142.924 313.694 141.574 306.74C140.57 299.535 137.976 292.691 137.617 285.281C136.772 273.199 140.995 260.082 143.439 248.521C145.111 239.902 148.624 231.267 153.741 224.113C159.945 215.904 163.505 206.971 168.812 198.621C171.221 195.02 173.962 189.327 177.316 185.569C183.442 173.979 191.489 159.935 205.686 155.444ZM230.235 157.188C234.72 157.898 239.456 158.955 243.893 159.964C248.869 153.706 253.844 147.447 258.867 140.89C251.801 140.997 244.783 140.804 237.859 140.014C236.065 139.73 234.57 139.493 232.776 139.209C228.289 144.319 223.802 149.429 219.267 154.838C223.406 155.8 226.946 156.667 230.235 157.188ZM262.886 163.891C264.381 164.128 266.222 164.113 267.717 164.35C268.283 166.584 268.896 168.519 269.162 170.706C270.989 168.851 272.815 166.995 274.295 165.392L274.043 165.045C274.342 165.093 274.342 165.093 274.641 165.14C274.641 165.14 274.688 164.841 274.987 164.889C275.035 164.59 275.082 164.291 275.129 163.992C275.209 161.554 277.145 160.941 278.687 160.879C284.213 155.015 289.739 149.15 294.967 143.238L294.668 143.191C284.251 141.234 273.203 141.323 262.455 141.459C257.432 148.016 252.11 154.525 246.788 161.035C252.469 161.935 257.457 163.337 262.886 163.891ZM282.4 164.531C288.82 164.629 295.587 164.475 301.961 164.872C302.118 165.816 302.274 166.76 302.778 167.452C304.95 165.345 307.17 162.94 309.39 160.534C308.212 156.365 307.033 152.195 305.855 148.026C305.698 147.082 305.541 146.138 305.384 145.194L305.085 145.147C304.519 142.913 303.953 140.679 303.435 138.146C302.695 138.948 301.908 140.048 300.869 140.803C294.556 147.768 287.943 154.686 281.63 161.652C282.086 162.643 282.589 163.335 282.4 164.531ZM320.393 154.924C320.627 159.25 320.908 163.277 321.489 167.352C325.328 168.266 329.263 168.583 333.291 168.302C340.203 161.432 346.516 154.466 352.877 147.202C344.834 149.604 338.177 151.001 329.113 150.178C327.272 150.193 325.179 149.861 323.385 149.577C322.299 150.63 321.165 151.983 320.079 153.036C320.283 153.681 320.487 154.326 320.393 154.924ZM326.607 196.96C327.125 199.493 327.895 202.372 328.712 204.953C347.202 208.187 366.484 198.681 384.064 194.112C391.115 192.166 396.623 190.281 403.908 192.66C406.851 193.433 409.699 194.803 412.295 195.827C414.672 194.365 417.049 192.903 419.127 191.394C425.565 187.512 432.254 183.976 438.236 179.103C439.323 178.05 440.708 177.044 441.794 175.99C433.816 174.114 425.933 171.64 418.79 168.364C415.643 166.947 413.047 165.923 410.403 165.198C396.85 175.305 383.296 185.413 369.491 195.174C368.106 196.18 366.596 194.103 367.981 193.097C381.141 183.54 394.254 174.281 406.863 164.331C404.77 163.999 402.284 164.218 399.104 164.94C394.682 165.771 390.511 166.949 386.042 168.079C375.811 170.748 365.534 173.715 355.209 176.982C346.82 179.636 340.761 181.127 331.949 180.65C329.21 180.523 326.819 180.144 324.175 179.419C323.829 179.67 323.435 180.221 322.79 180.425C324.33 186.183 325.319 191.548 326.607 196.96ZM452.433 211.375C454.384 212.603 456.335 213.831 458.286 215.059C462.442 212.041 466.598 209.023 470.753 206.005C474.61 202.939 478.719 200.22 482.874 197.202C480.61 194.086 477.999 191.222 475.34 188.656C472.43 185.744 468.78 183.634 465.334 182.169C455.495 190.108 445.704 197.748 435.912 205.388C441.104 207.436 447.037 208.682 452.433 211.375ZM531.686 208.303C527.674 204.604 524.009 200.653 520.691 196.451C519.652 197.206 518.565 198.259 517.526 199.014C513.67 202.079 509.514 205.097 505.405 207.817C508.976 212.365 512.546 216.913 516.463 221.21C522.806 217.925 529.401 214.987 536.248 212.395C534.643 210.916 533.039 209.436 531.686 208.303ZM428.482 136.2C420.441 132.782 416.445 130.923 408.293 132.083C398.957 140.714 389.669 149.047 380.034 157.63C383.56 156.657 386.786 155.636 390.312 154.663C398.952 152.355 405.453 150.015 414.233 152.631C416.278 153.261 418.324 153.891 420.322 154.821C423.439 152.557 426.257 150.246 429.421 147.684C432.585 145.121 435.749 142.559 438.615 139.949C435.121 138.783 431.628 137.617 428.482 136.2ZM430.766 92.7524C422.599 92.0715 413.25 93.0418 404.059 94.956C402.973 96.0094 402.233 96.8113 401.446 97.912C397.305 102.771 393.164 107.629 388.772 112.142C384.332 116.953 379.892 121.764 375.499 126.276C382.299 123.983 389.098 121.69 395.803 119.995C404.742 117.735 411.589 115.143 420.165 117.114C421.944 115.557 423.423 113.954 425.202 112.397C430.288 107.382 434.618 101.328 439.451 95.9662C439.845 95.4158 440.191 95.1643 440.585 94.6139C437.044 93.7468 434.102 92.9744 430.766 92.7524ZM229.33 100.981C220.577 107.866 211.825 114.752 202.82 121.291C206.109 121.812 209.052 122.584 212.041 123.058C214.134 123.389 215.928 123.673 217.974 124.304C221.17 119.602 224.02 115.152 227.217 110.45C229.233 107.399 231.547 104.396 234.161 101.44C232.367 101.156 230.872 100.919 229.33 100.981ZM229.357 110.482C226.161 115.184 222.964 119.886 220.067 124.635C226.298 125.928 232.781 127.568 239.012 128.861C239.406 128.311 240.146 127.509 240.539 126.959C246.554 119.946 252.867 112.981 258.331 105.574C251.203 104.139 243.775 102.656 236.254 101.771C233.986 104.476 231.373 107.432 229.357 110.482ZM275.876 108.966C271.14 107.909 266.057 107.104 261.022 106C259.888 107.353 259.006 109.051 257.873 110.403C252.85 116.96 247.276 123.124 241.703 129.287C244.095 129.666 246.487 130.045 248.878 130.424C254.606 131.025 260.382 131.327 266.204 131.33C271.621 124.222 277.037 117.115 282.454 110.008C280.613 110.022 278.268 109.345 275.876 108.966ZM270.139 131.647C278.699 131.777 287.308 131.609 295.821 132.038C295.946 135.121 296.369 138.252 296.793 141.383C297.533 140.581 298.225 140.078 298.666 139.229C300.099 137.924 301.28 136.273 302.713 134.968C302.556 134.024 302.351 133.379 302.194 132.435C302.493 132.482 303.091 132.577 303.39 132.624C302.967 129.494 302.291 126.017 301.868 122.886C301.444 119.755 300.517 115.932 299.937 111.858C295.357 111.745 291.124 111.381 286.592 110.969C280.924 117.731 275.555 124.539 270.139 131.647ZM310.339 111.973C310.747 113.263 311.156 114.554 311.266 115.796C311.831 118.031 312.696 120.312 313.309 122.247C316.316 118.741 319.323 115.234 322.283 112.027C318.648 111.758 314.32 111.991 310.339 111.973ZM317.143 134.802C321.88 135.859 326.758 136.019 331.385 135.833C339.619 126.414 347.555 116.949 355.742 107.829C347.4 110.184 339.2 111.643 329.994 111.717C329.097 111.574 328.452 111.779 327.555 111.637C323.115 116.448 319.022 121.008 314.582 125.819C315.651 128.745 316.421 131.624 317.143 134.802ZM379.523 100.873C373.416 102.663 367.31 104.453 361.502 106.291C353.22 116.008 344.939 125.725 336.358 135.395C347.846 134.457 359.414 131.081 370.683 127.658C375.469 122.595 380.256 117.533 385.388 112.218C389.781 107.706 393.921 102.847 398.062 97.9888C398.802 97.1869 399.542 96.3851 400.282 95.5832C392.633 97.4353 385.582 99.3821 379.523 100.873ZM391.405 136.148C379.932 138.926 368.663 142.35 357.693 145.82C350.986 153.336 344.231 161.151 337.273 168.32C349.658 167.524 361.919 163.646 374.179 159.767C384.16 150.931 393.795 142.347 403.524 133.166C399.401 134.045 395.277 134.923 391.405 136.148ZM428.507 151.522C426.728 153.078 424.697 154.288 422.918 155.845C431.257 159.31 439.156 163.624 447.243 166.743C448.691 167.279 450.138 167.815 451.633 168.051C451.979 167.8 451.979 167.8 452.326 167.548C460.889 161.859 469.452 156.169 477.465 150.085C472.225 148.336 466.639 146.839 460.958 145.939C454.428 144.598 447.646 142.911 441.211 140.973C437.511 144.982 432.71 148.205 428.507 151.522ZM493.119 159.611C492.82 159.563 492.867 159.264 492.568 159.217C487.972 163.084 483.328 167.251 478.731 171.118C476.952 172.674 474.874 174.183 473.048 176.039C480.096 179.912 486.31 185.185 491.784 191.26C494.555 189.248 497.671 186.985 500.442 184.973C503.213 182.961 505.983 180.949 508.706 179.235C504.02 172.06 499.286 165.183 493.119 159.611ZM473.292 157.083C467.404 161.359 461.265 165.288 455.079 169.516C460.366 170.966 465.653 172.416 470.798 174.763C472.23 173.458 473.616 172.452 475.347 171.195C480.637 166.824 485.674 162.108 490.964 157.738C487.707 155.077 484.309 153.314 480.612 151.503C478.187 153.263 475.716 155.323 473.292 157.083ZM516.313 166.041C517.618 167.474 518.577 169.157 519.883 170.59C522.355 168.53 524.779 166.77 527.25 164.71C531.154 161.346 535.059 157.982 539.214 154.964C533.143 148.794 527.071 142.624 520.259 137.256C515.268 141.674 509.775 145.399 504.533 149.47C503.494 150.225 502.455 150.98 501.715 151.781C507.174 156.016 511.94 160.753 516.313 166.041ZM546.34 162.219C544.736 160.74 543.131 159.26 541.826 157.828C539.102 159.541 536.427 160.955 533.955 163.015C531.137 165.326 528.319 167.637 525.501 169.948C524.116 170.954 522.731 171.96 521.645 173.013C524.712 176.869 527.731 181.023 530.751 185.178C535.348 181.311 540.244 177.491 545.092 173.97C547.564 171.91 549.988 170.15 552.758 168.138C550.352 165.918 548.196 164.045 546.34 162.219ZM518.929 194.028C515.909 189.873 512.937 185.42 509.964 180.967C505.51 183.937 501.354 186.955 497.151 190.272C496.112 191.027 494.727 192.033 493.64 193.086C494.144 193.779 494.694 194.172 495.197 194.865C498.013 198.374 500.828 201.884 503.596 205.692C508.791 201.919 513.986 198.147 518.929 194.028ZM484.29 199.877C476.623 205.709 468.611 211.792 460.693 217.278C463.698 219.592 466.608 222.504 469.219 225.368C477.199 221.424 485.227 217.181 493.003 212.592C490.03 208.139 487.309 204.031 484.29 199.877ZM462.691 181.444C457.797 179.444 452.463 178.293 447.081 177.44C446.483 177.346 445.586 177.204 444.689 177.062C444.343 177.313 443.949 177.863 443.304 178.068C434.457 185.551 424.351 191.303 414.545 197.102C419.989 199.496 425.338 202.488 430.877 204.284C431.475 204.379 431.726 204.725 432.324 204.82C443.013 197.322 452.852 189.383 462.691 181.444ZM320.096 149.056C320.096 149.056 319.797 149.009 320.096 149.056C319.797 149.009 319.797 149.009 320.096 149.056C319.797 149.009 320.096 149.056 320.096 149.056ZM158.415 413.263C165.092 402.066 170.873 390.727 176.653 379.388C175.317 374.275 174.281 369.209 174.188 363.987C174.268 361.548 174.348 359.11 174.475 356.373C171.876 361.17 168.428 365.525 164.933 370.18C161.091 375.085 157.501 380.338 153.91 385.59C155.181 394.982 155.854 404.279 158.415 413.263ZM472.352 108.836C463.557 104.379 453.409 98.7895 442.929 95.2916C440.017 98.2003 437.607 101.801 435.639 104.553C431.797 109.459 427.751 113.72 423.406 117.933C432.139 120.848 440.682 124.959 449.226 129.069C449.966 128.267 450.706 127.465 451.194 126.317C455.429 120.861 459.902 113.91 466.953 111.964C467.598 111.759 468.448 112.2 468.306 113.097C467.107 118.728 460.968 122.657 456.765 125.974C456.371 126.525 455.616 125.486 456.262 125.282C459.473 122.421 463.975 119.151 465.834 115.156C459.742 118.787 455.758 124.589 451.523 130.046C454.67 131.463 458.116 132.928 461.31 134.047C469.696 137.213 478.666 138.634 486.957 142.398C491.696 137.634 498.01 130.669 503.847 132.512C504.445 132.607 504.697 132.953 504.602 133.551L504.176 136.241C504.081 136.838 503.184 136.696 502.98 136.051C502.101 131.929 492.812 140.262 489.255 143.374C489.554 143.422 489.805 143.768 490.104 143.815C493.503 145.579 496.555 147.594 499.559 149.908C504.802 145.837 509.996 142.064 515.238 137.993C515.286 137.694 514.987 137.647 515.333 137.395C516.372 136.64 517.112 135.839 518.151 135.084C517.05 134.297 516.247 133.557 515.146 132.77C502.781 123.765 486.244 115.938 472.352 108.836ZM582.35 190.287C572.942 183.895 563.283 177.157 554.363 169.617C553.025 170.324 552.033 170.78 550.947 171.833C544.367 176.612 538.039 181.737 532.009 186.909C537.892 194.274 544.121 201.388 551.531 206.851C557.087 204.667 562.643 202.483 567.994 199.655C573.346 196.826 579.092 193.447 585.355 192.601C585.056 192.554 584.805 192.207 584.506 192.16C584.443 190.618 583.342 189.831 582.35 190.287ZM460.814 305.528C460.515 305.481 460.562 305.182 460.263 305.135C463.081 302.824 465.946 300.214 468.764 297.903C469.063 297.95 469.015 298.249 469.314 298.297C474.998 293.376 480.382 288.408 485.766 283.44C485.766 283.44 485.766 283.44 485.467 283.393C493.322 276.365 501.131 269.637 508.986 262.609L509.285 262.656C515.614 257.532 521.69 252.061 527.767 246.59C527.767 246.59 527.468 246.542 527.515 246.243C531.121 242.832 534.977 239.766 538.583 236.355L538.882 236.402C542.439 233.289 545.997 230.176 549.256 227.016C545.683 228.288 541.764 229.812 538.191 231.085C536.901 231.493 536.288 229.558 537.578 229.149C542.489 227.17 547.652 225.537 552.562 223.557C556.467 220.193 560.119 216.482 563.724 213.071C564.023 213.118 564.574 213.512 564.873 213.559C573.232 207.224 582.346 201.928 591.365 197.229C590.311 196.143 589.21 195.356 588.108 194.569C587.321 195.669 586.486 197.069 585.998 198.217C585.604 198.768 585.054 198.374 585.148 197.776C585.196 197.477 586.96 194.08 586.409 193.687C585.607 192.947 580.649 195.225 579.657 195.681C575.093 197.409 571.032 199.829 566.97 202.25C562.61 204.623 558.345 206.398 553.78 208.126C554.882 208.913 556.03 209.401 556.833 210.141C552.928 213.505 549.072 216.571 545.167 219.935C542.713 218.015 540.558 216.142 538.151 213.922C531.305 216.514 524.662 219.751 518.02 222.988C521.732 226.64 525.791 230.04 530.291 232.59C526.78 235.404 523.522 238.565 520.011 241.378C515.905 238.277 511.894 234.578 508.134 231.226C507.332 230.486 506.828 229.793 506.026 229.054C500.029 232.086 494.284 235.465 488.239 238.797C486.901 239.504 485.391 237.427 486.729 236.72C492.475 233.341 498.472 230.308 504.17 227.228C500.505 223.277 497.186 219.075 494.214 214.622C486.737 219.259 478.756 223.203 470.776 227.147C479.773 238.069 487.793 251.287 500.097 258.75C497.279 261.061 494.413 263.671 491.895 266.029C488.638 263.369 485.13 260.362 481.921 257.403C473.599 249.958 468.394 240.249 462.151 231.295L461.804 231.547C460.466 232.254 459.602 229.972 460.641 229.218C458.879 226.794 456.819 224.324 454.412 222.104C454.16 221.758 453.861 221.711 453.311 221.317C449.249 223.737 444.889 226.11 440.624 227.886C439.286 228.593 438.122 226.264 439.759 225.604C443.726 223.782 447.441 221.613 451.155 219.444C445.35 215.461 438.269 213.727 431.141 212.291C429.646 212.055 428.151 211.818 426.704 211.282C426.011 211.785 425.318 212.288 424.626 212.791C423.587 213.546 422.328 211.815 423.367 211.06L423.714 210.809C418.128 209.311 412.589 207.515 407.444 205.168C405.997 204.632 404.848 204.144 403.699 203.656C396.474 208.639 389.249 213.621 380.954 215.678C379.365 216.039 379.146 213.553 380.735 213.192C388.384 211.34 394.02 206.718 400.505 202.537C397.862 201.812 395.124 201.685 391.299 202.611C387.821 203.286 383.996 204.212 380.471 205.185C371.83 207.493 363.489 209.848 354.801 212.455C348.002 214.748 342.934 215.783 335.616 215.543C334.122 215.306 332.579 215.368 330.833 214.785C331.084 215.132 330.99 215.729 331.241 216.076C332.781 221.834 331.127 226.474 331.77 232.09L331.722 232.389C339.087 232.33 346.201 231.925 353.456 230.623C361.655 229.164 370.909 228.792 378.904 226.688C389.827 223.517 400.012 215.326 411.939 219.36C421.82 222.763 433.037 231.279 440.808 238.331C447.526 244.297 450.685 253.375 457.497 258.743C466.008 264.993 475.433 267.405 483.835 272.412C481.363 274.471 479.191 276.578 476.672 278.936C473.179 277.77 469.638 276.903 466.397 276.083C458.513 273.609 449.026 269.656 443.3 263.234C440.186 259.677 438.756 255.162 435.641 251.605C432.275 247.702 427.476 245.104 423.717 241.751C419.957 238.398 416.576 232.655 412.029 230.403C400.984 224.671 387.966 233.332 377.437 235.953C359.951 239.923 344.18 246.616 327.059 246.355C326.226 241.934 325.394 237.514 324.562 233.093C324.562 233.093 324.562 233.093 324.861 233.14L324.609 232.794C321.751 217.942 318.594 203.044 315.784 187.893C315.831 187.594 315.579 187.248 315.627 186.949C313.203 188.71 310.778 190.47 308.401 191.932C307.016 192.938 305.506 190.861 306.892 189.855C309.615 188.142 312.385 186.13 314.857 184.07C313.506 177.116 311.511 170.367 309.515 163.617C307.342 165.724 305.122 168.13 302.95 170.236C303.311 171.825 303.72 173.116 304.081 174.705C303.483 174.61 302.586 174.468 302.035 174.074C301.138 173.932 300.241 173.79 299.345 173.648C297.912 174.953 296.778 176.305 295.346 177.61C294.259 178.663 292.451 176.539 293.836 175.533C294.576 174.731 295.316 173.929 296.008 173.426C291.775 173.062 287.841 172.745 283.561 172.68C283.922 174.269 284.582 175.905 284.645 177.447C285.853 185.297 288.699 192.488 290.899 199.883C291.103 200.528 291.26 201.472 291.464 202.117C297.586 202.167 303.409 202.17 309.53 202.221C310.048 204.754 310.22 207.538 310.739 210.071C305.105 208.873 298.984 208.822 293.161 208.819C293.679 211.352 294.245 213.586 294.763 216.119C295.438 219.596 295.468 223.277 295.498 226.958C293.849 219.957 291.554 213.16 289.464 207.008C285.377 194.106 280.693 181.11 275.71 168.067C268.751 175.236 261.793 182.406 254.535 189.528C253.102 190.833 250.947 188.959 252.38 187.655C257.119 182.891 262.204 177.875 266.942 173.111C262.363 172.999 257.784 172.886 253.252 172.475C249.019 172.111 244.282 171.054 239.546 169.998C234.618 175.957 229.391 181.869 224.163 187.781C223.03 189.133 221.174 187.307 222.26 186.254C227.093 180.892 231.974 175.232 236.556 169.524C226.737 167.663 216.87 166.1 208.23 168.408C204.829 172.464 201.428 176.521 197.728 180.53C196.595 181.883 194.44 180.01 195.573 178.657C197.84 175.953 200.108 173.248 202.674 170.591C199.998 172.006 197.228 174.018 194.913 177.021C195.653 176.219 194.078 178.421 192.85 180.37C189.307 185.324 185.057 188.94 181.813 193.94C180.238 196.142 177.829 199.743 174.774 203.548C174.68 204.146 174.286 204.696 174.239 204.995C171.214 212.481 169.874 219.009 165.449 225.661C164.614 227.06 163.78 228.46 162.992 229.56C162.945 229.859 162.898 230.158 162.551 230.41C159.953 235.206 158.047 239.5 156.203 245.335C153.004 255.857 149.883 269.761 149.374 280.71C148.772 292.256 153.835 302.861 153.877 314.203C153.715 324.9 151.067 335.816 150.307 346.418C149.358 358.216 150.472 366.664 152.954 378.086C153.267 379.974 153.629 381.563 153.943 383.45C161.028 373.544 168.067 363.936 175.153 354.029C175.753 348.304 176.652 342.625 177.504 337.246C178.404 331.568 179.208 326.487 178.314 320.524C177.419 314.562 175.234 309.008 174.985 302.841C174.407 292.946 177.7 281.826 179.813 272.357C181.248 265.232 183.926 257.997 188.209 252.242C193.279 245.386 196.304 237.9 200.729 231.248C202.744 228.198 204.997 223.653 207.957 220.445C213.201 210.553 220.272 198.806 231.887 195.131C238.34 193.09 245.924 195.517 252.502 196.558C261.471 197.979 270.503 200.941 279.52 202.063C280.118 202.158 280.417 202.205 281.015 202.3C281.832 204.88 282.649 207.46 283.215 209.694C279.234 209.677 275.252 209.659 271.664 209.09C255.724 207.178 235.002 198.688 223.272 212.761C223.665 212.211 222.783 213.909 221.603 215.56C218.8 219.712 214.99 222.478 212.486 226.677C211.258 228.627 208.991 231.331 206.629 234.634C206.534 235.231 206.188 235.483 206.093 236.081C203.604 242.12 202.406 247.751 198.768 253.302C197.981 254.403 197.493 255.551 196.705 256.651C196.658 256.95 196.611 257.249 196.264 257.501C194.107 261.448 192.296 265.144 190.94 269.831C188.324 278.607 185.581 290.121 185.357 299.276C184.787 308.683 189.189 317.652 188.918 327.106C188.741 335.962 186.377 345.085 185.901 353.894C185.727 356.93 185.647 359.368 185.567 361.806C188.891 354.367 192.812 347.023 199.25 343.141C199.943 342.638 201.343 343.473 200.902 344.322C200.509 344.872 200.414 345.47 200.02 346.02C199.973 346.319 199.328 346.523 199.076 346.177C193.739 350.846 190.951 356.838 188.415 363.176C187.832 364.922 186.997 366.322 186.115 368.02C186.444 371.749 187.371 375.572 188.203 379.992C190.78 390.817 190.523 402.111 194.091 412.48C194.091 412.48 194.044 412.779 194.343 412.826C200.123 401.487 205.604 390.101 211.085 378.715C210.6 374.043 212.207 369.702 212.665 364.873C214.055 352.226 210.328 346.734 204.918 336.38C203.047 332.713 201.333 329.991 201.099 325.665C200.882 317.359 204.945 309.118 205.626 300.954C206.022 294.584 205.914 287.52 205.712 281.055C205.448 273.048 205.575 270.311 211.936 263.046C219.084 254.681 223.148 246.441 231.963 241.097C240.81 233.614 246.697 229.338 260.059 226.246C270.242 223.877 278.299 223.315 287.976 226.073C288.903 229.896 289.531 233.672 290.159 237.447C286.21 235.29 282.261 233.133 277.776 232.423C268.807 231.002 257.381 233.481 248.992 236.135C245.12 237.36 242.098 239.026 239.28 241.337C233.408 247.453 227.929 253.019 222.811 260.174C220.009 264.325 213.586 270.048 212.828 274.829C211.739 281.703 216.314 293.456 216.327 301.117C216.277 307.237 214.087 313.323 213.738 319.395C213.499 326.71 216.22 330.817 219.255 336.812C219.758 337.505 219.962 338.15 220.166 338.795C222.339 336.688 224.213 334.534 227.265 336.549C231.418 339.352 228.237 345.894 226.772 349.338C226.236 350.785 225.748 351.933 225.212 353.38C225.745 357.754 225.334 362.284 223.491 368.119C222.277 371.909 222.307 375.59 222.636 379.319C225.676 373.673 228.967 368.374 231.707 362.681C235.33 355.289 236.86 347.566 239.035 339.639C238.295 340.441 237.555 341.243 237.066 342.391C236.673 342.941 236.17 342.249 236.217 341.95C237.193 339.654 238.28 338.6 240.059 337.044C240.751 336.541 241.554 337.281 241.459 337.878C240.181 345.947 238.258 354.221 234.934 361.66C231.61 369.099 227.138 376.049 223.563 383.142C225.417 390.788 229.458 398.168 231.91 405.909C232.303 405.359 232.697 404.808 233.138 403.959C238.492 395.31 244.444 386.756 248.697 377.319C250.556 373.325 251.817 369.235 253.077 365.146C252.26 362.566 251.443 359.985 250.326 357.358C243.739 342.835 236.129 325.086 235.302 309.025C234.599 296.046 240.569 283.512 246.349 272.173C247.672 269.625 250.913 270.445 251.479 272.679C264.435 262.477 285.744 257.58 298.317 261.41C307.097 264.026 314.098 268.198 323.855 268.518C335.453 268.823 343.072 263.29 353.648 260.37C360.4 258.376 365.042 260.03 371.667 260.773C382.226 261.833 389.309 257.747 399.397 255.974C410.43 254.045 418.467 263.284 425.247 270.791C430.17 276.473 432.859 282.719 439.907 286.593C447.255 290.514 456.162 290.393 463.557 294.015C461.038 296.373 458.471 299.03 455.953 301.388C454.552 300.554 453.404 300.066 451.657 299.483C446.465 297.435 441.287 297.228 436.19 294.582C426.293 289.338 421.687 279.724 414.309 272.122C407.435 265.213 404.712 266.926 396.228 270.178C390.672 272.361 386.611 274.782 380.442 275.03C371.189 275.403 363.542 271.434 354.209 274.245C347.457 276.239 342.011 279.666 334.85 280.37C322.968 281.858 312.536 278.061 302.136 272.125C288.338 264.425 255.022 267.726 247.303 285.498C246.862 286.347 246.768 286.945 246.327 287.794C246.279 288.093 246.232 288.392 246.185 288.69C246.137 288.989 246.137 288.989 246.137 288.989C244.294 294.824 242.702 301.006 243.14 305.977C244.142 319.003 249.833 333.384 255.651 345.028C256.563 347.01 257.474 348.993 258.685 351.023C258.733 350.724 259.079 350.472 259.126 350.174C260.056 348.176 261.237 346.525 262.166 344.528C264.812 339.433 258.643 339.681 255.73 342.589C255.337 343.14 254.534 342.4 254.928 341.85C256.896 339.098 262.36 331.692 265.741 337.435C266.952 339.465 265.928 342.06 264.999 344.057C263.486 347.801 261.77 350.899 260.006 354.296C261.987 359.205 263.968 364.114 265.602 369.274C268.689 363.33 271.729 357.684 274.516 351.692C274.516 351.692 274.516 351.692 274.564 351.393C274.312 351.047 274.359 350.748 274.706 350.497C275.635 348.499 276.517 346.801 277.745 344.851C270.151 328.943 261.518 313.789 282.137 303.576C283.822 302.617 285.175 303.75 285.835 305.387C295.295 299.839 309.569 298.73 318.743 300.795C330.607 303.287 339.813 303.213 351.994 301.773C357.314 301.083 362.885 300.74 368.251 299.752C376.199 297.947 382.134 293.373 389.531 291.175C405.963 286.118 421.739 304.548 432.074 314.763C439.499 322.066 451.378 326.398 456.93 335.855C461.93 344.919 460.274 355.379 460.899 364.975C461.29 370.245 463.318 374.855 461.821 380.439C460.765 385.174 456.923 390.079 454.419 394.278C447.946 406.12 448.24 417.808 444.71 430.423C441.905 440.394 439.067 452.506 432.564 460.666C424.928 470.179 412.256 478.589 401.301 483.9C383.405 492.4 362.175 494.859 344.285 485.898C333.492 480.512 326.145 476.591 318.847 466.551C311.801 456.857 310.341 448.661 308.205 436.987C306.541 428.146 305.081 419.949 301.528 411.421C299.091 405.521 295.615 400.375 293.525 394.223C292.252 390.651 291.026 386.781 290.099 382.958C288.918 384.609 287.69 386.559 286.509 388.21C282.525 394.012 278.289 399.469 274.353 404.972C275.138 409.692 276.174 414.758 276.959 419.478C279.015 433.589 284.344 446.381 288.682 459.629C292.768 472.531 294.714 485.399 308.056 492.108C319.998 497.982 332.979 503.102 345.945 506.381C357.762 509.171 371.423 506.127 383.619 506.527C399.151 507.149 408.529 509.859 419.425 497.186C423.219 492.579 428.414 488.807 432.208 484.2C437.136 478.24 438.87 471.162 444.302 465.895C449.34 461.179 456.438 458.933 460.925 453.823C465.711 448.76 467.445 441.682 469.682 435.297C474.299 421.629 477.421 407.725 477.852 393.394C477.996 386.677 478.581 379.111 478.427 372.347C478.115 364.638 475.868 357.543 475.556 349.834C475.464 344.612 476.174 340.129 477.278 335.095C465.192 335.938 455.121 333.731 451.961 324.652C448.974 318.358 455.036 311.047 460.814 305.528ZM533.511 322.557C530.678 323.027 526.208 324.157 520.747 325.743C521.579 330.164 521.515 334.443 520.852 338.627C519.748 343.66 520.486 348.679 520.877 353.949C526.889 352.757 532.854 351.863 538.818 350.97C538.866 350.671 538.614 350.325 538.661 350.026C538.143 347.493 537.483 345.856 537.468 344.016C535.786 339.154 536.386 333.428 536.64 327.954C534.154 328.173 531.715 328.093 529.228 328.312C527.985 328.421 527.671 326.534 528.914 326.424C531.401 326.205 534.186 326.034 536.625 326.114C536.516 324.871 536.705 323.675 536.596 322.433C535.4 322.243 534.455 322.4 533.511 322.557ZM545.189 320.424C545.251 321.965 545.014 323.46 544.73 325.253C554.33 324.629 563.883 324.304 573.435 323.978C573.562 321.241 573.736 318.205 573.911 315.169C564.421 317.036 554.631 318.856 545.189 320.424ZM583.7 313.35C583.179 316.637 582.312 320.176 582.091 323.511C590.4 323.296 598.457 322.734 606.766 322.518C606.233 318.144 606.345 313.567 606.457 308.989C598.856 310.542 591.302 311.797 583.7 313.35ZM638.216 303.909C631.308 304.96 624.399 306.01 617.442 307.359C616.638 312.44 615.534 317.473 615.674 322.397C616.618 322.24 617.216 322.335 618.16 322.178C620.946 322.006 632.434 321.069 641.797 321.939C641.326 319.107 640.855 316.275 640.038 313.695C639.614 310.564 638.939 307.087 638.216 303.909ZM644.777 345.694C643.738 346.449 642.998 347.251 642.258 348.052C642.211 348.351 641.314 348.209 641.708 347.659C642.291 345.913 643.33 345.159 644.668 344.451C644.605 342.91 644.543 341.368 644.182 339.779C636.328 340.986 628.617 341.297 620.953 341.308C621.614 342.944 622.227 344.88 622.588 346.469C624.489 353.816 625.65 361.965 625.017 369.83C631.186 369.582 637.403 369.035 643.477 369.384C643.714 367.89 643.998 366.097 644.234 364.602C644.882 358.578 644.979 352.16 644.777 345.694ZM642.956 372.672C637.779 372.464 632.853 372.603 627.581 372.994C626.637 373.15 625.74 373.008 624.796 373.165C624.701 373.763 624.559 374.659 624.464 375.257C622.304 385.025 617.8 394.115 615.939 403.93C620.124 404.593 624.358 404.957 628.984 404.771C631.172 404.504 633.013 404.49 634.854 404.475C636.857 393.763 640.654 383.336 642.956 372.672ZM633.878 406.771C630.494 406.848 627.362 407.271 623.979 407.348C620.942 407.173 618.204 407.046 615.261 406.273C613.888 414.94 614.656 423.64 612.984 432.26C612.558 434.949 611.833 437.592 611.108 440.234C617.686 441.276 625.208 442.161 632.241 444.194C631.601 432.757 631.259 421.368 633.058 410.011C633.546 408.863 633.688 407.967 633.878 406.771ZM632.617 447.623C625.238 445.842 617.905 443.761 610.478 442.279C608.255 450.505 605.829 458.086 605.856 467.587C605.714 468.484 605.919 469.129 605.824 469.727C607.02 469.916 608.515 470.153 609.711 470.342C615.092 471.195 619.923 471.653 625.243 470.964C628.375 470.541 630.216 470.526 633.158 471.299C633.445 463.685 633.181 455.678 632.617 447.623ZM625.181 506.185C630.867 495.444 632.917 484.434 633.472 473.187C628.689 472.429 624.172 473.858 619.246 473.997C615.264 473.979 611.126 473.017 606.94 472.354C606.641 472.307 606.342 472.259 606.043 472.212C605.852 479.228 604.511 485.756 602.478 492.786C601.943 494.233 601.753 495.429 601.218 496.876C606.804 498.373 611.901 501.018 617.487 502.516C617.535 502.217 617.33 501.572 617.52 500.377C617.614 499.779 618.212 499.874 618.464 500.22C618.92 501.211 619.675 502.25 620.131 503.241C620.634 503.933 619.894 504.735 619.249 504.939C615.315 504.623 612.215 502.906 608.769 501.442C606.221 500.119 603.577 499.394 600.587 498.92C597.767 507.051 594.648 515.135 590.978 522.826C593.669 523.252 596.407 523.379 598.893 523.16C602.277 523.084 605.409 522.661 609.044 522.93C610.539 523.167 613.528 523.64 616.471 524.413C619.007 518.075 622.094 512.13 625.181 506.185ZM582.248 587.617C589.162 574.925 598.136 564.705 603.949 551.227C607.761 542.64 611.525 534.352 615.337 525.765C614.739 525.67 613.842 525.528 613.244 525.433C607.564 524.534 602.244 525.223 596.422 525.22C593.983 525.14 591.842 525.107 589.45 524.728C587.104 529.871 584.206 534.62 581.261 539.668C584.944 539.639 588.626 539.609 592.309 539.58C592.356 539.281 592.403 538.982 592.702 539.03C594.842 539.062 596.086 538.953 598.226 538.985C599.768 538.923 599.389 541.314 598.146 541.424C591.883 542.27 586.012 542.565 579.938 542.216C579.891 542.515 579.545 542.766 579.497 543.065C573.308 553.114 568.017 563.305 561.12 572.016C565.809 573.371 570.199 574.679 574.888 576.035C575.486 576.129 575.344 577.026 574.699 577.23C569.569 576.724 564.534 575.62 559.247 574.17C555.106 579.029 550.367 583.792 544.826 587.817C543.787 588.571 542.402 589.577 541.064 590.284C550.992 593.389 561.377 597.484 569.338 603.34C574.627 598.97 578.815 593.813 582.248 587.617ZM439.094 651.642C435.317 652.27 431.887 652.645 428.408 653.32C428.817 654.61 429.226 655.9 429.634 657.19C431.222 662.65 433.454 667.905 435.34 673.412C464.707 667.953 492.754 659.222 517.216 644.102C520.632 641.886 524.394 639.418 527.857 636.903C525.323 637.421 522.837 637.64 520.051 637.812C520.303 638.158 520.255 638.457 519.909 638.708C512.888 644.336 502.895 645.51 494.396 646.922C481.522 648.865 468.601 651.108 455.932 653.696C454.642 654.105 454.375 651.918 455.666 651.51C467.044 649.329 478.675 647.495 490.006 645.613C499.748 644.093 509.442 642.871 518.162 638.125C503.243 639.438 487.963 639.163 472.872 637.692C471.093 639.248 468.968 641.056 466.638 642.219C457.918 646.965 448.585 649.775 439.094 651.642ZM378.008 642.58C379.425 639.434 381.032 635.094 382.686 630.454C385.915 623.613 389.097 617.07 391.476 609.788C393.27 610.072 395.064 610.357 396.811 610.94C404.569 610.33 412.171 608.777 420.024 607.57C430.71 605.893 443.033 603.555 451.581 596.025C457.312 590.805 461.846 585.396 468.174 580.272C470.646 578.212 473.369 576.499 476.14 574.487C475.542 574.392 474.944 574.297 474.094 573.857C472.647 573.321 472.978 571.229 474.473 571.466C475.921 572.001 477.116 572.191 478.564 572.726C486.435 567.539 494.856 562.746 502.726 557.559C490.06 554.327 477.298 551.693 464.868 546.967C459.469 550.095 454.022 553.521 449.079 557.64C444.089 562.058 440.499 567.31 434.753 570.689C428.709 574.021 421.91 576.314 414.953 577.663C398.853 580.627 384.911 579.644 368.875 578.33C360.975 579.836 352.728 581.593 344.718 581.857C340.736 581.839 336.66 582.418 332.631 582.699C326.886 586.078 321.188 589.159 315.238 591.893C307.951 595.334 299.751 596.792 292.463 600.233C291.126 600.941 290.261 598.659 291.599 597.952C297.25 595.171 303.561 594.026 309.463 591.591C315.664 589.203 321.709 585.871 327.753 582.54C325.314 582.46 323.174 582.427 320.782 582.048C316.895 581.432 313.449 579.968 309.704 578.455C303.364 575.919 298.296 576.955 291.97 576.259C285.345 575.516 281.271 570.276 275.623 567.237C270.523 570.412 266.178 574.625 261.88 578.54C258.322 581.653 254.67 585.363 250.419 588.979C251.316 589.121 251.867 589.514 252.764 589.657C261.292 591.926 267.192 595.312 274.492 599.532C281.792 603.751 287.647 601.615 295.122 602.799C300.504 603.651 304.704 606.155 309.944 607.904C320.376 611.701 335.091 609.742 346.343 610.299C346.941 610.393 347.586 610.189 347.885 610.237C354.024 606.307 359.408 601.339 362.637 594.498C362.731 593.9 363.581 594.341 363.534 594.64C361.894 601.12 357.407 606.23 351.914 609.956C362.709 609.521 373.395 607.844 384.049 608.306C382.631 611.451 380.915 614.549 379.497 617.694C377.058 617.614 374.367 617.188 371.928 617.108C362.139 618.928 352.601 621.094 343.049 621.419C338.422 621.605 333.449 622.043 328.822 622.229C321.487 625.969 314.357 630.354 306.613 632.804C301.75 634.484 296.43 635.174 291.363 636.209C295.753 637.517 299.403 639.627 303.746 641.234C315.625 645.566 332.528 643.342 345.62 643.884C353.237 644.171 360.697 643.514 368.156 642.858C366.345 646.553 364.486 650.548 362.628 654.543C355.671 655.892 348.762 656.942 341.995 657.096C331.247 657.231 319.569 659.365 308.759 657.959C303.377 657.106 298.531 654.807 293.291 653.058C284.606 649.844 277.351 651.146 268.633 650.072C258.42 648.76 252.428 640.152 243.239 636.246C231.155 631.269 218.992 628.729 207.491 622.006C201.591 618.621 195.786 614.638 189.98 610.655C190.516 609.208 191.004 608.06 191.241 606.565C192.407 603.074 193.62 599.283 194.582 595.147C199.647 599.932 206.444 603.459 212.548 607.489C220.556 613.047 229.052 617.456 238.43 620.167C248.155 622.626 254.857 626.751 263.306 631.459C271.157 636.072 277.562 634.33 285.084 635.215C289.507 634.383 293.929 633.552 298.351 632.721C307.543 630.807 315.176 627.114 323.503 622.918C320.419 623.042 317.381 622.868 314.392 622.394C309.608 621.637 305.312 619.731 300.97 618.124C293.48 615.1 287.169 616.245 279.348 615.312C270.332 614.19 265.393 606.668 257.353 603.25C251.311 600.762 245.474 598.918 239.384 596.728C238.046 597.435 236.756 597.844 235.418 598.551C232.837 599.367 229.927 596.456 231.847 594.003C245.603 590.361 272.79 567.707 287.462 554.407C288.516 555.493 289.177 557.129 287.996 558.78C287.208 559.881 286.468 560.683 285.429 561.437C286.279 561.878 287.129 562.319 288.23 563.106C294.429 566.539 298.993 564.811 305.272 565.806C309.757 566.516 313.407 568.626 317.45 570.185C325.837 573.352 337.719 571.864 346.878 572.089C347.224 571.837 347.523 571.885 347.869 571.633C349.207 570.926 367.592 561.277 362.841 558.38C362.589 558.034 362.684 557.436 362.983 557.484C363.88 557.626 364.729 558.067 365.626 558.209C366.224 558.303 366.428 558.948 366.381 559.247C363.987 564.689 358.792 568.461 353.047 571.84C365.385 571.344 377.456 568.66 389.478 572.096C395.993 571.596 402.005 570.404 408.615 569.306C417.46 567.644 427.847 565.919 434.663 559.646C439.355 555.181 443.401 550.92 448.344 546.801C459.915 537.605 473.451 531.477 484.974 522.58C496.497 513.682 503.254 500.047 510.419 487.703C511.254 486.303 512.089 484.903 512.923 483.504C510.925 482.575 508.628 481.598 506.63 480.669C505.481 480.181 506.41 478.183 507.559 478.671C509.856 479.648 511.854 480.577 514.152 481.554C518.12 473.911 521.885 465.623 523.509 457.302C521.165 456.624 519.167 455.695 516.869 454.718C515.422 454.183 516.351 452.186 517.799 452.721C519.797 453.65 521.842 454.281 523.888 454.911C524.125 453.417 524.361 451.922 524.551 450.727C525.246 444.404 524.1 438.095 525.094 431.819C520.011 431.014 515.227 430.256 510.239 428.853C509.609 430.898 509.278 432.99 509.198 435.428C508.911 443.042 504.345 450.59 504.452 457.653C504.589 468.398 505.468 472.52 496.778 480.947C484.483 492.785 470.583 503.144 459.341 516.069C450.32 526.588 445.753 534.137 431.698 537.731C415.409 541.891 402.47 548.114 385.553 548.498C381.225 548.731 377.244 548.713 372.916 548.947C365.454 555.424 356.325 558.88 346.646 561.942C345.355 562.351 344.443 560.368 345.734 559.96C354.123 557.306 361.961 554.258 368.887 549.228C357.793 549.615 346.651 550.302 335.698 549.792C317.129 548.996 294.172 541.071 276.709 529.42C266.541 533.631 256.278 538.439 245.906 542.004C247.606 542.886 248.959 544.019 250.61 545.2C256.416 549.183 262.316 552.568 269.397 554.303C271.143 554.886 272.591 555.421 274.337 556.004C263.806 564.446 251.495 574.444 241.751 581.785C245.655 578.421 249.764 575.702 253.668 572.337C257.572 568.973 261.13 565.86 265.286 562.842C259.196 560.652 253.06 558.761 247.16 555.376C242.66 552.825 238.255 549.677 233.85 546.528C228.939 548.508 224.029 550.487 219.165 552.168C218.991 555.203 217.227 558.6 214.252 559.967C213.26 560.423 211.875 561.429 210.741 562.781C215.57 569.061 223.217 573.029 230.123 577.799C233.175 579.814 236.227 581.829 239.327 583.546C234.132 587.318 229.725 589.99 227.096 591.106C226.545 590.712 225.948 590.617 225.696 590.271C218.695 586.099 211.19 581.234 204.677 575.913C204.127 575.52 203.623 574.827 202.774 574.386C200.223 578.884 198.065 582.831 196.742 585.379C190.568 597.268 185.685 608.749 182.107 621.662C181.335 624.603 179.035 629.447 178.861 632.483C178.246 636.368 179.865 639.688 179.549 643.621C179.501 643.92 179.454 644.219 179.407 644.518C194.069 654.499 211.236 660.281 230.623 663.658C263.416 669.465 296.491 679.299 330.183 679.427C338.146 679.463 346.109 679.499 354.418 679.283C354.339 681.721 354.306 683.861 354.526 686.346C354.792 688.533 357.782 689.006 358.711 687.009C360.034 684.461 361.058 681.866 362.082 679.271C363.027 679.115 363.924 679.257 364.868 679.1C366.729 669.285 368.998 660.76 372.559 651.827C372.559 651.827 372.559 651.827 372.26 651.779C373.426 648.288 374.891 644.843 376.356 641.399C377.41 642.485 377.709 642.532 378.008 642.58Z" fill="#DCDAD1"/>
<path d="M309.681 243.183C305.864 241.948 301.949 241.328 298.132 240.094C297.861 235.956 296.988 231.723 296.067 227.797C302.293 229.413 308.869 230.77 315.193 231.771C316.318 236.359 317.444 240.947 318.569 245.535C315.859 245.106 312.896 244.322 309.681 243.183Z" fill="#DCDAD1"/>
<path d="M400.369 377.222C400.277 383.62 397.142 389.842 395.852 396.05C394.609 401.961 395.856 407.655 395.259 413.363C394.41 418.725 388.551 432.455 382.435 434.234C375.72 435.919 368.119 427.692 364.192 423.405C357.395 415.916 351.197 408.521 348.813 398.372C347.471 393.273 346.57 387.328 347.073 382.217C347.811 375.615 350.854 375.792 354.241 369.916C352.649 370.274 351.309 370.978 350.774 372.42C350.097 374.756 346.502 374.187 347.179 371.851C348.47 365.642 353.357 365.806 358.89 365.766C367.26 365.259 371.563 361.36 378.813 358.233C382.785 356.419 385.669 355.655 389.674 357.511C395.981 360.342 400.556 370.228 400.369 377.222ZM368.05 369.965C365.812 370.527 360.121 369.625 355.786 369.855C355.739 370.153 356.038 370.2 355.991 370.498C355.505 377.445 351.96 382.38 352.325 389.767C353.07 400.573 357.817 407.432 365.261 414.719C368.178 417.624 371.6 421.22 375.699 422.48C379.499 423.692 376.567 424.755 380.98 422.094C381.674 421.594 385.344 413.93 385.438 413.334C387.88 407.613 387.672 401.167 389.01 394.661C390.883 386.713 394.664 380.288 391.95 372.224C387.089 358.323 376.704 367.671 368.05 369.965Z" fill="#DCDAD1"/>
</g>
<defs>
<clipPath id="clip0_158_1995">
<rect width="667" height="627" fill="white" transform="matrix(-0.156434 0.987688 0.987688 0.156434 104.342 0)"/>
</clipPath>
</defs>
</svg>
