<svg width="93" height="93" viewBox="0 0 93 93" fill="none" xmlns="http://www.w3.org/2000/svg">
<rect x="1.5" y="1.5" width="90" height="90" rx="43.5" fill="#F6F7F3" stroke="#8B9D83" stroke-width="3"/>
<path d="M33.6663 63.6666H46.9997V46.9999H33.6663V63.6666Z" fill="#FDFDFD"/>
<path d="M60.333 63.6666V46.9999H46.9997V63.6666H60.333Z" fill="#FDFDFD"/>
<path d="M39.4997 38.6666L30.333 38.6666V46.9999H33.6663H46.9997V38.6666L39.4997 38.6666Z" fill="#FDFDFD"/>
<path d="M54.4997 38.6666L46.9997 38.6666V46.9999H60.333H63.6663V38.6666L54.4997 38.6666Z" fill="#FDFDFD"/>
<path d="M60.333 63.6666V65.3333C61.2535 65.3333 61.9997 64.5871 61.9997 63.6666H60.333ZM33.6663 63.6666H31.9997C31.9997 64.5871 32.7459 65.3333 33.6663 65.3333V63.6666ZM30.333 38.6666L30.333 36.9999C29.4125 36.9999 28.6663 37.7461 28.6663 38.6666H30.333ZM63.6663 38.6666H65.333C65.333 37.7461 64.5868 36.9999 63.6663 36.9999V38.6666ZM63.6663 46.9999V48.6666C64.5868 48.6666 65.333 47.9204 65.333 46.9999H63.6663ZM30.333 46.9999H28.6663C28.6663 47.9204 29.4125 48.6666 30.333 48.6666V46.9999ZM39.4997 38.6666V36.9999V38.6666ZM35.333 34.4999H33.6663H35.333ZM39.4997 30.3333V28.6666V30.3333ZM54.4997 38.6666V36.9999V38.6666ZM54.4997 30.3333V31.9999V30.3333ZM58.6663 46.9999V63.6666H61.9997V46.9999H58.6663ZM60.333 61.9999H33.6663V65.3333H60.333V61.9999ZM35.333 63.6666V46.9999H31.9997V63.6666H35.333ZM30.333 40.3333H63.6663V36.9999H30.333V40.3333ZM61.9997 38.6666V46.9999H65.333V38.6666H61.9997ZM31.9997 46.9999V38.6666H28.6663V46.9999H31.9997ZM46.9997 36.9999L39.4997 36.9999V40.3333L46.9997 40.3333V36.9999ZM39.4997 36.9999C38.8366 36.9999 38.2007 36.7365 37.7319 36.2677L35.3749 38.6247C36.4688 39.7187 37.9526 40.3333 39.4997 40.3333V36.9999ZM37.7319 36.2677C37.2631 35.7988 36.9997 35.163 36.9997 34.4999H33.6663C33.6663 36.047 34.2809 37.5307 35.3749 38.6247L37.7319 36.2677ZM36.9997 34.4999C36.9997 33.8369 37.2631 33.201 37.7319 32.7322L35.3749 30.3751C34.2809 31.4691 33.6663 32.9528 33.6663 34.4999H36.9997ZM37.7319 32.7322C38.2007 32.2633 38.8366 31.9999 39.4997 31.9999V28.6666C37.9526 28.6666 36.4688 29.2812 35.3749 30.3751L37.7319 32.7322ZM39.4997 31.9999C41.4895 31.9999 42.9285 33.3972 43.9768 35.3031C44.4817 36.221 44.8333 37.1544 45.0592 37.8677C45.1712 38.2213 45.2499 38.5134 45.2998 38.7127C45.3246 38.8122 45.3422 38.8881 45.3529 38.9363C45.3583 38.9604 45.362 38.9775 45.364 38.9872C45.3651 38.9921 45.3657 38.9951 45.3659 38.9961C45.366 38.9967 45.366 38.9967 45.3659 38.9963C45.3659 38.996 45.3658 38.9957 45.3657 38.9952C45.3657 38.995 45.3656 38.9945 45.3656 38.9944C45.3655 38.994 45.3654 38.9934 46.9997 38.6666C48.634 38.3397 48.6339 38.3392 48.6337 38.3386C48.6337 38.3383 48.6336 38.3377 48.6335 38.3372C48.6333 38.3362 48.633 38.3351 48.6328 38.3339C48.6323 38.3314 48.6317 38.3284 48.631 38.325C48.6295 38.318 48.6277 38.3091 48.6254 38.2981C48.6208 38.2763 48.6144 38.2467 48.6061 38.2097C48.5896 38.1359 48.5657 38.0327 48.5336 37.9043C48.4695 37.6479 48.3724 37.289 48.237 36.8614C47.9681 36.0121 47.5385 34.8622 46.8975 33.6967C45.6541 31.436 43.3432 28.6666 39.4997 28.6666V31.9999ZM46.9997 40.3333L54.4997 40.3333V36.9999L46.9997 36.9999V40.3333ZM54.4997 40.3333C56.0468 40.3333 57.5305 39.7187 58.6245 38.6247L56.2674 36.2677C55.7986 36.7365 55.1627 36.9999 54.4997 36.9999V40.3333ZM58.6245 38.6247C59.7184 37.5307 60.333 36.047 60.333 34.4999H56.9997C56.9997 35.163 56.7363 35.7988 56.2674 36.2677L58.6245 38.6247ZM60.333 34.4999C60.333 32.9528 59.7184 31.4691 58.6245 30.3751L56.2674 32.7322C56.7363 33.201 56.9997 33.8369 56.9997 34.4999H60.333ZM58.6245 30.3751C57.5305 29.2812 56.0468 28.6666 54.4997 28.6666V31.9999C55.1627 31.9999 55.7986 32.2633 56.2674 32.7322L58.6245 30.3751ZM54.4997 28.6666C50.6562 28.6666 48.3452 31.436 47.1018 33.6967C46.4608 34.8622 46.0313 36.0121 45.7623 36.8613C45.6269 37.289 45.5299 37.6479 45.4658 37.9043C45.4337 38.0327 45.4097 38.1359 45.3932 38.2097C45.385 38.2467 45.3786 38.2763 45.374 38.2981C45.3717 38.3091 45.3698 38.318 45.3684 38.325C45.3677 38.3284 45.3671 38.3314 45.3666 38.3339C45.3663 38.3351 45.3661 38.3362 45.3659 38.3372C45.3658 38.3377 45.3657 38.3383 45.3656 38.3386C45.3655 38.3392 45.3654 38.3397 46.9997 38.6666C48.634 38.9934 48.6339 38.994 48.6338 38.9944C48.6338 38.9945 48.6337 38.995 48.6336 38.9952C48.6335 38.9957 48.6335 38.996 48.6334 38.9963C48.6333 38.9967 48.6333 38.9967 48.6334 38.9961C48.6337 38.9951 48.6343 38.9921 48.6353 38.9872C48.6373 38.9775 48.641 38.9604 48.6464 38.9363C48.6572 38.8881 48.6747 38.8122 48.6996 38.7127C48.7494 38.5134 48.8282 38.2213 48.9401 37.8677C49.166 37.1544 49.5177 36.221 50.0225 35.3031C51.0708 33.3972 52.5098 31.9999 54.4997 31.9999V28.6666ZM39.4997 36.9999L30.333 36.9999L30.333 40.3333L39.4997 40.3333V36.9999ZM30.333 48.6666H33.6663V45.3333H30.333V48.6666ZM33.6663 48.6666H46.9997V45.3333H33.6663V48.6666ZM48.6663 46.9999V38.6666H45.333V46.9999H48.6663ZM48.6663 63.6666V46.9999H45.333V63.6666H48.6663ZM63.6663 45.3333H46.9997V48.6666H63.6663V45.3333ZM46.9997 45.3333H30.333V48.6666H46.9997V45.3333ZM46.9997 48.6666H60.333V45.3333H46.9997V48.6666ZM60.333 48.6666H63.6663V45.3333H60.333V48.6666ZM63.6663 36.9999L54.4997 36.9999V40.3333L63.6663 40.3333V36.9999ZM46.9997 65.3333H60.333V61.9999H46.9997V65.3333ZM33.6663 65.3333H46.9997V61.9999H33.6663V65.3333Z" fill="#B2D452"/>
</svg>
