<svg width="38" height="38" viewBox="0 0 38 38" fill="none" xmlns="http://www.w3.org/2000/svg">
  <path fill-rule="evenodd" clip-rule="evenodd" d="M18.7626 23.7481L22.7201 19.8168C23.813 18.731 24.084 17.0723 23.3927 15.699L23.1685 15.2535C22.4773 13.8801 22.7482 12.2214 23.8412 11.1356L28.7481 6.26121C29.0987 5.91293 29.6671 5.91293 30.0177 6.26121C30.0859 6.32899 30.1427 6.40726 30.1859 6.49299L32.1681 10.4312C33.6845 13.4441 33.0901 17.0828 30.6924 19.4646L19.9213 30.1645C17.3114 32.7571 13.4509 33.6624 9.94941 32.503L5.61411 31.0674C5.14373 30.9117 4.88952 30.4066 5.04631 29.9394C5.09039 29.808 5.16464 29.6887 5.26319 29.5908L10.0237 24.8618C11.1166 23.776 12.7864 23.5068 14.1689 24.1935L14.6174 24.4163C15.9999 25.103 17.6697 24.8338 18.7626 23.7481Z" fill="#306838" />
</svg>