<svg width="128" height="128" viewBox="0 0 128 128" fill="none" xmlns="http://www.w3.org/2000/svg">
<path fill-rule="evenodd" clip-rule="evenodd" d="M95.5 16.75V111.25C95.5 114.149 93.1495 116.5 90.25 116.5H37.75C34.8505 116.5 32.5 114.149 32.5 111.25V16.75C32.5 13.8505 34.8505 11.5 37.75 11.5H90.25C93.1495 11.5 95.5 13.8505 95.5 16.75V16.75Z" fill="#EDE8E2" stroke="#8B9D83" stroke-width="5.25" stroke-linecap="round" stroke-linejoin="round"/>
<rect x="74.5" y="11.5" width="5.25" height="21" transform="rotate(90 74.5 11.5)" stroke="#8B9D83" stroke-width="5.25" stroke-linecap="round" stroke-linejoin="round"/>
<path fill-rule="evenodd" clip-rule="evenodd" d="M62.7626 57.8662L66.7201 53.9088C67.813 52.8158 68.084 51.1461 67.3927 49.7635L67.1685 49.3151C66.4772 47.9325 66.7482 46.2628 67.8412 45.1698L72.7481 40.263C73.0987 39.9123 73.6671 39.9123 74.0177 40.263C74.0859 40.3312 74.1427 40.41 74.1859 40.4963L76.1681 44.4607C77.6845 47.4936 77.0901 51.1566 74.6924 53.5543L63.9213 64.3254C61.3114 66.9353 57.4509 67.8466 53.9494 66.6794L49.6141 65.2343C49.1437 65.0775 48.8895 64.5691 49.0463 64.0987C49.0904 63.9665 49.1646 63.8464 49.2632 63.7478L54.0237 58.9873C55.1166 57.8944 56.7864 57.6234 58.1689 58.3147L58.6174 58.5389C59.9999 59.2302 61.6697 58.9592 62.7626 57.8662Z" fill="#306838"/>
<circle cx="54" cy="89" r="3" fill="#8B9D83"/>
<circle cx="64" cy="89" r="3" fill="#8B9D83"/>
<circle cx="74" cy="89" r="3" fill="#306838"/>
</svg>
