<svg width="128" height="128" viewBox="0 0 128 128" fill="none" xmlns="http://www.w3.org/2000/svg">
<g clip-path="url(#clip0_587_1882)">
<path fill-rule="evenodd" clip-rule="evenodd" d="M66.9998 110.039C93.6936 110.039 115.333 88.3992 115.333 61.7054C115.333 35.0116 93.6936 13.3721 66.9998 13.3721C40.3061 13.3721 18.6665 35.0116 18.6665 61.7054C18.6665 88.3992 40.3061 110.039 66.9998 110.039Z" fill="#EDE8E2" stroke="#8B9D83" stroke-width="4.83333"/>
<path fill-rule="evenodd" clip-rule="evenodd" d="M66.9998 105.206C66.9998 105.206 86.3332 89.3879 86.3332 61.7061C86.3332 34.0242 66.9998 18.2061 66.9998 18.2061C66.9998 18.2061 47.6665 34.0242 47.6665 61.7061C47.6665 89.3879 66.9998 105.206 66.9998 105.206Z" stroke="#8B9D83" stroke-width="4.83333"/>
<path d="M21.0832 47.2054H112.916" stroke="#8B9D83" stroke-width="4.83333" stroke-linecap="round"/>
<path d="M21.0832 76.2054H112.916" stroke="#8B9D83" stroke-width="4.83333" stroke-linecap="round"/>
<path d="M10.1372 84.1375C10.1372 82.0234 11.851 80.3096 13.9652 80.3096H60.8578C62.9719 80.3096 64.6857 82.0234 64.6857 84.1375V115.878C64.6857 117.992 62.9719 119.706 60.8578 119.706H13.9652C11.851 119.706 10.1372 117.992 10.1372 115.878V84.1375Z" fill="#306838"/>
<path fill-rule="evenodd" clip-rule="evenodd" d="M56.0313 85.8844C57.1366 85.2893 58.515 85.7028 59.1101 86.808C59.7052 87.9133 59.2917 89.2917 58.1865 89.8868L38.4884 100.493C37.8157 100.856 37.006 100.856 36.3333 100.493L16.6352 89.8868C15.53 89.2917 15.1164 87.9133 15.7116 86.808C16.3067 85.7028 17.6851 85.2893 18.7903 85.8844L37.4108 95.9108L56.0313 85.8844Z" fill="white"/>
</g>
<defs>
<clipPath id="clip0_587_1882">
<rect width="128" height="128" fill="white"/>
</clipPath>
</defs>
</svg>
