<svg width="128" height="128" viewBox="0 0 128 128" fill="none" xmlns="http://www.w3.org/2000/svg">
<path fill-rule="evenodd" clip-rule="evenodd" d="M4 113C4 100.625 20.5 100.625 28.75 92.375C32.875 88.25 20.5 88.25 20.5 67.625C20.5 53.8764 25.9986 47 37 47C48.0014 47 53.5 53.8764 53.5 67.625C53.5 88.25 41.125 88.25 45.25 92.375C53.5 100.625 70 100.625 70 113" fill="#EDE8E2"/>
<path d="M4 113C4 100.625 20.5 100.625 28.75 92.375C32.875 88.25 20.5 88.25 20.5 67.625C20.5 53.8764 25.9986 47 37 47C48.0014 47 53.5 53.8764 53.5 67.625C53.5 88.25 41.125 88.25 45.25 92.375C53.5 100.625 70 100.625 70 113" stroke="#8B9D83" stroke-width="4" stroke-linecap="round"/>
<mask id="path-3-inside-1_587_1883" fill="white">
<path fill-rule="evenodd" clip-rule="evenodd" d="M91.5 78C108.897 78 123 63.897 123 46.5C123 29.103 108.897 15 91.5 15C74.103 15 60 29.103 60 46.5C60 53.3172 62.1656 59.6286 65.8464 64.7838L62.9245 79.8886L77.6543 74.8018C81.8332 76.85 86.5323 78 91.5 78Z"/>
</mask>
<path fill-rule="evenodd" clip-rule="evenodd" d="M91.5 78C108.897 78 123 63.897 123 46.5C123 29.103 108.897 15 91.5 15C74.103 15 60 29.103 60 46.5C60 53.3172 62.1656 59.6286 65.8464 64.7838L62.9245 79.8886L77.6543 74.8018C81.8332 76.85 86.5323 78 91.5 78Z" fill="#EDE8E2"/>
<path d="M65.8464 64.7838L69.7736 65.5435L70.0998 63.8572L69.1017 62.4594L65.8464 64.7838ZM62.9245 79.8886L58.9973 79.1289L57.6814 85.931L64.2301 83.6695L62.9245 79.8886ZM77.6543 74.8018L79.4147 71.2101L77.921 70.4779L76.3486 71.0209L77.6543 74.8018ZM119 46.5C119 61.6878 106.688 74 91.5 74V82C111.106 82 127 66.1061 127 46.5H119ZM91.5 19C106.688 19 119 31.3122 119 46.5H127C127 26.8939 111.106 11 91.5 11V19ZM64 46.5C64 31.3122 76.3122 19 91.5 19V11C71.8939 11 56 26.8939 56 46.5H64ZM69.1017 62.4594C65.8892 57.9601 64 52.4566 64 46.5H56C56 54.1778 58.4419 61.2971 62.591 67.1081L69.1017 62.4594ZM61.9192 64.0241L58.9973 79.1289L66.8516 80.6483L69.7736 65.5435L61.9192 64.0241ZM64.2301 83.6695L78.96 78.5827L76.3486 71.0209L61.6188 76.1077L64.2301 83.6695ZM91.5 74C87.1559 74 83.0577 72.9956 79.4147 71.2101L75.8938 78.3936C80.6086 80.7045 85.9087 82 91.5 82V74Z" fill="#8B9D83" mask="url(#path-3-inside-1_587_1883)"/>
<path fill-rule="evenodd" clip-rule="evenodd" d="M89.7626 49.7481L93.7201 45.8168C94.813 44.731 95.084 43.0723 94.3927 41.699L94.1685 41.2535C93.4773 39.8801 93.7482 38.2214 94.8412 37.1356L99.7481 32.2612C100.099 31.9129 100.667 31.9129 101.018 32.2612C101.086 32.329 101.143 32.4073 101.186 32.493L103.168 36.4312C104.685 39.4441 104.09 43.0828 101.692 45.4646L90.9213 56.1645C88.3114 58.7571 84.4509 59.6624 80.9494 58.503L76.6141 57.0674C76.1437 56.9117 75.8895 56.4066 76.0463 55.9394C76.0904 55.808 76.1646 55.6887 76.2632 55.5908L81.0237 50.8618C82.1166 49.776 83.7864 49.5068 85.1689 50.1935L85.6174 50.4163C86.9999 51.103 88.6697 50.8338 89.7626 49.7481Z" fill="#306838"/>
</svg>
